<?xml version="1.0" standalone="no"?>
<!DOCTYPE svg PUBLIC "-//W3C//DTD SVG 20010904//EN"
 "http://www.w3.org/TR/2001/REC-SVG-20010904/DTD/svg10.dtd">
<svg version="1.0" xmlns="http://www.w3.org/2000/svg"
 width="236.000000pt" height="236.000000pt" viewBox="0 0 236.000000 236.000000"
 preserveAspectRatio="xMidYMid meet">
<metadata>
Created by potrace 1.11, written by Peter Selinger 2001-2013
</metadata>
<g transform="translate(0.000000,236.000000) scale(0.100000,-0.100000)"
fill="#000000" stroke="none">
<path d="M1046 2329 c-437 -63 -807 -376 -939 -795 -42 -134 -51 -193 -51
-344 0 -250 62 -455 197 -655 53 -78 185 -214 267 -276 335 -252 804 -295
1186 -109 599 291 828 1028 499 1604 -60 105 -110 169 -208 263 -164 157 -342
251 -566 299 -86 18 -297 25 -385 13z m100 -85 c-3 -9 -6 -28 -6 -44 0 -31
-24 -43 -110 -55 -44 -6 -45 -5 -67 34 -13 22 -23 42 -23 45 0 2 33 9 73 16
39 6 79 13 87 15 40 8 52 5 46 -11z m277 -8 c32 -7 60 -16 63 -19 3 -3 2 -25
-1 -50 -6 -38 -12 -47 -45 -66 -30 -17 -55 -21 -123 -21 l-85 0 -16 34 c-13
28 -14 42 -4 91 l11 57 71 -6 c39 -4 97 -13 129 -20z m-526 -86 c37 -72 11
-127 -72 -150 -38 -11 -49 -10 -82 6 -24 12 -46 34 -61 60 l-22 42 26 17 c39
25 157 75 173 72 8 -1 25 -22 38 -47z m766 6 c92 -43 92 -43 55 -103 -18 -29
-38 -55 -46 -58 -14 -5 -96 66 -114 98 -5 11 -7 38 -3 63 7 49 3 49 108 0z
m-512 -85 c29 -23 31 -88 3 -108 -29 -22 -86 -16 -129 14 -78 52 -72 79 22 99
78 17 78 17 104 -5z m-530 -43 c13 -31 13 -32 -46 -85 -32 -29 -64 -53 -72
-53 -8 0 -28 7 -45 16 l-30 16 33 35 c48 50 129 114 139 108 4 -2 13 -19 21
-37z m1306 -51 l41 -40 -28 -23 c-15 -13 -34 -24 -41 -24 -19 0 -119 101 -119
120 0 9 7 26 16 38 l16 23 36 -27 c21 -15 56 -45 79 -67z m-368 8 c22 -24 41
-46 41 -49 0 -2 -9 -24 -20 -50 -23 -50 -26 -51 -83 -35 -42 11 -51 26 -62
108 -8 60 -1 71 51 71 25 0 41 -10 73 -45z m-193 -44 c14 -78 11 -88 -28 -96
-33 -8 -56 8 -89 61 -14 23 -18 41 -13 61 10 43 12 44 67 41 l52 -3 11 -64z
m-407 -5 c52 -28 54 -37 15 -99 -21 -34 -44 -59 -57 -61 -12 -3 -37 -7 -54
-10 l-33 -5 0 79 c0 76 1 80 28 94 35 19 66 20 101 2z m-215 -12 c12 -11 16
-35 16 -88 0 -68 -3 -78 -37 -130 -21 -31 -44 -56 -51 -56 -15 0 -88 53 -109
79 -7 8 -13 33 -13 55 0 37 5 46 62 98 67 60 103 72 132 42z m1050 -43 c57
-58 59 -61 53 -102 -4 -28 -15 -51 -34 -70 -34 -33 -41 -35 -116 -25 -40 6
-61 14 -67 27 -36 66 31 224 95 228 6 1 37 -26 69 -58z m-571 -58 c29 -40 29
-43 17 -93 -14 -60 -25 -66 -122 -69 -67 -2 -68 -2 -88 31 -11 18 -20 42 -20
53 0 34 67 124 98 131 15 3 32 7 37 9 17 5 46 -19 78 -62z m849 -7 c42 -58 78
-118 78 -129 0 -3 -22 -19 -49 -37 -72 -46 -115 -40 -155 20 -24 35 -30 54
-28 90 1 40 6 49 44 82 24 21 48 38 54 38 6 0 31 -29 56 -64z m-1647 27 c51
-34 55 -40 55 -85 0 -33 -6 -42 -56 -82 -31 -26 -60 -46 -64 -46 -8 0 -102 39
-108 44 -8 8 114 195 128 196 3 0 23 -12 45 -27z m1090 -74 c21 -10 32 -24 38
-52 8 -33 5 -43 -23 -87 -40 -62 -55 -71 -122 -69 -44 2 -57 7 -80 32 -31 32
-35 66 -16 130 9 29 20 43 42 53 37 17 119 13 161 -7z m-549 -109 c22 -33 25
-46 19 -77 -11 -58 -21 -70 -74 -88 -46 -15 -54 -15 -105 0 -86 25 -98 69 -41
147 29 39 41 47 72 51 99 10 101 10 129 -33z m-346 -70 c60 -52 59 -82 -5
-132 l-50 -39 -75 6 c-41 3 -78 12 -82 18 -11 18 -10 93 3 119 6 13 33 40 61
60 50 37 52 37 79 21 16 -10 47 -33 69 -53z m1280 14 c0 -6 -11 -21 -26 -34
-21 -21 -27 -22 -34 -10 -19 30 -15 69 8 87 14 10 20 8 34 -10 10 -12 18 -27
18 -33z m-188 6 c34 -10 38 -16 58 -75 12 -35 20 -79 18 -96 -3 -30 -7 -33
-68 -51 -36 -10 -69 -18 -75 -18 -10 1 -95 142 -95 158 0 4 14 27 31 50 34 46
58 52 131 32z m492 -30 c18 -45 56 -178 56 -196 0 -14 -74 -34 -123 -34 -57 0
-63 17 -44 123 14 82 19 95 49 119 18 15 36 28 39 28 4 0 14 -18 23 -40z
m-1876 -90 c2 -56 -1 -82 -15 -108 -18 -34 -18 -34 -74 -28 -85 8 -92 13 -84
55 7 40 43 157 57 183 8 16 12 16 61 -5 l52 -23 3 -74z m932 70 c23 -32 24
-49 10 -101 -10 -35 -12 -37 -66 -43 -52 -6 -59 -4 -92 21 -83 66 -77 57 -64
102 14 44 23 49 102 53 68 4 88 -2 110 -32z m770 -27 c-1 -10 -7 -49 -14 -87
-14 -74 -46 -116 -86 -116 -29 0 -70 61 -70 103 0 31 7 41 51 76 37 30 61 41
85 41 26 0 34 -4 34 -17z m-545 -53 c26 -22 85 -138 85 -168 0 -40 -15 -49
-87 -51 l-61 -2 -48 67 -47 66 12 46 c7 26 17 49 22 53 17 10 108 2 124 -11z
m-420 -95 l30 -25 -27 -47 -27 -48 -83 -17 c-46 -9 -85 -14 -88 -11 -11 10 -2
110 13 144 12 29 24 39 58 51 48 15 51 14 124 -47z m-286 44 c34 -12 37 -23
21 -81 -12 -42 -16 -44 -98 -47 -70 -3 -92 8 -92 45 0 17 14 33 52 59 57 38
69 41 117 24z m-257 -84 c9 -4 20 -21 24 -38 6 -27 2 -35 -34 -69 -36 -33 -47
-38 -91 -38 -27 0 -52 4 -55 9 -4 5 -9 29 -12 54 -5 33 -2 51 12 72 17 26 21
27 79 22 33 -3 68 -9 77 -12z m794 -60 l46 -65 -18 -66 -17 -65 -61 2 c-34 1
-66 4 -73 7 -7 2 -29 34 -49 70 l-37 66 27 52 c28 54 38 60 103 63 29 1 37 -6
79 -64z m545 0 c60 -74 61 -170 2 -189 -10 -3 -56 4 -103 17 -79 20 -86 25
-102 57 -22 47 -29 95 -15 114 13 16 105 44 152 45 24 1 37 -8 66 -44z m-1636
-3 c71 -14 86 -87 33 -158 -32 -42 -98 -77 -115 -60 -10 9 -17 179 -9 211 5
20 11 24 29 20 12 -3 40 -9 62 -13z m1853 1 c11 -21 4 -82 -10 -100 -6 -7 -25
-13 -44 -13 -37 0 -54 21 -54 64 0 49 88 88 108 49z m195 3 c7 -16 7 -170 0
-195 -5 -18 -15 -19 -80 -5 -34 7 -54 54 -47 111 4 26 11 56 15 65 7 14 46 28
100 37 4 1 9 -5 12 -13z m-1463 -87 c16 -37 5 -114 -19 -138 -10 -10 -54 -28
-98 -40 -117 -31 -142 -17 -159 90 -6 33 -3 44 17 65 38 40 59 48 139 54 96 6
106 4 120 -31z m776 -43 c12 -34 12 -43 -6 -83 -10 -24 -29 -57 -41 -74 -19
-27 -26 -30 -68 -27 -42 3 -48 6 -66 40 l-19 37 22 70 23 70 57 4 c84 5 84 5
98 -37z m-499 -31 l33 -64 -29 -78 -28 -78 -41 -3 c-37 -3 -43 1 -79 43 -21
25 -46 59 -55 76 -16 30 -16 33 8 87 14 31 26 57 28 59 5 5 87 21 111 21 15 1
28 -16 52 -63z m-619 -48 c16 -57 12 -65 -56 -100 l-47 -25 -43 38 c-23 21
-42 41 -42 45 0 4 16 27 37 51 35 44 38 45 87 42 l50 -3 14 -48z m1622 3 c24
-24 25 -53 2 -100 l-17 -35 -70 0 -70 0 -11 35 c-13 40 -9 58 23 94 19 22 32
26 73 26 37 0 55 -5 70 -20z m-335 -40 c38 -11 75 -26 82 -33 7 -7 16 -33 19
-58 5 -39 2 -52 -20 -87 -20 -33 -32 -42 -54 -42 -58 1 -104 19 -132 52 -55
64 -56 71 -24 133 16 30 36 55 44 55 8 0 46 -9 85 -20z m-413 -65 c16 -33 19
-52 14 -89 -10 -66 -24 -76 -111 -76 -62 0 -78 4 -100 23 l-26 22 27 75 c15
41 31 80 35 85 4 6 37 8 74 7 l66 -4 21 -43z m910 -5 c-1 -19 -12 -65 -23
-102 -20 -69 -31 -78 -73 -62 -22 8 -21 85 1 144 20 54 29 61 68 58 28 -3 30
-6 27 -38z m-1992 -17 c33 -30 43 -46 46 -78 2 -22 1 -48 -2 -57 -6 -21 -70
-62 -84 -53 -9 6 -51 130 -65 193 -6 31 -6 32 28 32 26 0 45 -10 77 -37z m609
-28 c22 -30 41 -60 41 -68 0 -21 -50 -140 -67 -159 -25 -28 -68 -21 -128 18
l-55 37 0 62 c0 112 5 121 69 144 86 30 93 28 140 -34z m-306 16 c32 -13 35
-23 27 -110 -8 -77 -19 -95 -66 -107 -20 -5 -124 52 -139 76 -27 44 -1 86 80
128 45 24 63 26 98 13z m999 -73 c61 -66 62 -70 38 -143 -23 -69 -23 -69 -85
-65 -49 3 -60 11 -91 72 -22 44 -23 52 -13 95 16 65 24 73 76 73 38 0 50 -5
75 -32z m506 -33 c2 -17 -10 -64 -30 -112 -31 -79 -35 -84 -72 -94 -47 -13
-57 -5 -80 65 -22 69 -20 87 14 135 l31 42 67 -3 c66 -3 67 -3 70 -33z m-1004
-21 c32 -31 36 -51 24 -106 -14 -64 -27 -81 -72 -95 -28 -9 -39 -8 -56 4 -37
26 -42 57 -19 116 12 28 25 62 30 75 6 17 16 22 43 22 19 0 42 -7 50 -16z
m722 -75 c7 -5 19 -39 28 -75 13 -51 14 -69 5 -87 -19 -34 -89 -121 -107 -131
-25 -14 -49 25 -62 102 -13 71 -10 92 27 180 13 32 15 33 56 27 23 -4 47 -11
53 -16z m-451 -7 c15 -10 55 -81 55 -96 0 -8 -18 -30 -40 -50 -36 -32 -46 -36
-94 -36 -69 0 -83 6 -101 41 -14 27 -10 79 10 137 5 13 152 17 170 4z m824 -1
c11 -7 7 -20 -18 -67 -41 -77 -57 -97 -70 -90 -10 7 -4 34 25 106 23 57 36 68
63 51z m-1756 -31 c26 -17 47 -38 48 -48 5 -90 1 -106 -33 -134 l-33 -27 -18
22 c-40 50 -107 157 -107 171 0 18 46 45 75 45 11 1 41 -13 68 -29z m268 -41
c54 -34 54 -42 0 -93 -30 -29 -31 -29 -85 -17 -30 7 -57 18 -59 26 -12 30 10
70 49 92 21 13 41 23 43 23 2 0 26 -14 52 -31z m214 -66 c31 -35 31 -43 -1
-120 -29 -67 -31 -69 -111 -78 -46 -5 -53 -4 -63 15 -6 12 -12 34 -12 50 -2
48 103 157 154 160 4 0 19 -12 33 -27z m677 -20 c9 -10 19 -36 22 -58 4 -22 9
-48 12 -57 6 -21 -80 -118 -105 -118 -32 0 -89 59 -106 110 -19 56 -13 73 36
114 38 32 116 37 141 9z m-446 -58 c6 -26 -17 -108 -41 -143 -9 -12 -34 -26
-56 -32 -34 -9 -45 -8 -66 5 -30 20 -28 53 9 130 19 42 30 52 68 66 52 19 76
12 86 -26z m896 18 c10 -9 18 -22 18 -29 0 -15 -178 -184 -194 -184 -16 0 -61
61 -58 78 6 27 84 141 100 145 43 12 116 6 134 -10z m-1412 -66 c40 -19 53
-117 21 -166 -7 -11 -21 -4 -67 32 -33 25 -72 59 -89 77 l-30 32 29 25 c25 21
36 24 70 19 22 -4 52 -12 66 -19z m696 5 c7 -4 18 -26 25 -50 12 -42 12 -43
-22 -72 -19 -16 -42 -32 -53 -36 -18 -6 -96 23 -96 36 0 14 33 106 43 118 10
13 85 16 103 4z m386 -103 c21 -11 64 -57 81 -85 6 -10 -14 -24 -70 -52 -120
-60 -120 -60 -133 -12 -14 53 -8 70 45 119 50 46 48 45 77 30z m-792 -64 c23
-24 23 -28 12 -82 -6 -31 -13 -58 -15 -60 -9 -8 -191 69 -202 86 -9 16 17 61
39 66 98 21 139 19 166 -10z m537 -12 c36 -23 46 -37 60 -80 9 -29 14 -55 11
-58 -7 -8 -134 -32 -191 -38 l-48 -4 7 46 c12 77 17 88 64 125 25 20 47 36 49
36 2 0 24 -12 48 -27z m-267 -33 c36 -18 40 -24 39 -58 -1 -20 -4 -48 -8 -62
-8 -28 -18 -29 -136 -17 -99 11 -102 13 -84 79 12 47 18 54 49 65 52 18 96 15
140 -7z"/>
</g>
</svg>
